<svg xmlns="http://www.w3.org/2000/svg" width="117.99" height="44.71" viewBox="0 0 117.99 44.71"><g data-name="グループ 166" fill="#fff"><path data-name="パス 5" d="M3 44.71a2.64 2.64 0 002.13-1.03l-.23-.24a2.4 2.4 0 01-1.88.92c-1.62 0-2.63-1.35-2.63-3.43s1.01-3.39 2.67-3.39a2.11 2.11 0 011.62.76l.23-.25a2.419 2.419 0 00-1.85-.86C1.22 37.19 0 38.64 0 40.93s1.21 3.78 3 3.78zm5.75 0c1.72 0 2.95-1.49 2.95-3.78s-1.23-3.74-2.95-3.74-2.95 1.45-2.95 3.74 1.23 3.78 2.95 3.78zm0-.35c-1.53 0-2.56-1.35-2.56-3.43s1.03-3.39 2.56-3.39 2.56 1.31 2.56 3.39-1.03 3.43-2.56 3.43zm4.52.22h.35v-4.73c0-.69-.02-1.31-.04-1.99h.04l.83 1.43 3.19 5.29h.4v-7.26h-.36v4.67c0 .68.02 1.35.06 2.05h-.05l-.83-1.43-3.2-5.29h-.39zm8.66.13a2.018 2.018 0 002.27-1.92c0-1.12-.72-1.55-1.54-1.92l-1.11-.5c-.51-.23-1.27-.56-1.27-1.47 0-.82.67-1.36 1.68-1.36a2.343 2.343 0 011.75.76l.23-.25a2.664 2.664 0 00-1.98-.86 1.846 1.846 0 00-2.06 1.75c0 1.07.85 1.5 1.48 1.78l1.11.5c.73.33 1.34.63 1.34 1.6 0 .91-.74 1.54-1.9 1.54a2.838 2.838 0 01-2.17-1.01l-.25.26a3.093 3.093 0 002.42 1.1zm5.04-.13h.39v-6.93h2.34v-.33h-5.07v.33h2.34zm4.38-3.74v-3.19h1.51c1.33 0 2.07.41 2.07 1.54s-.74 1.65-2.07 1.65zm4.09 3.74l-2.05-3.44a1.882 1.882 0 001.94-1.95c0-1.34-.91-1.87-2.34-1.87h-2.01v7.26h.37v-3.42h1.61l2.05 3.42zm3.64.13c1.18 0 2.41-.6 2.41-2.85v-4.54h-.36v4.46c0 1.99-.98 2.58-2.05 2.58-1.05 0-2.01-.59-2.01-2.58v-4.46h-.37v4.54c0 2.25 1.2 2.85 2.38 2.85zm6.95 0a2.64 2.64 0 002.13-1.03l-.23-.24a2.4 2.4 0 01-1.88.92c-1.62 0-2.63-1.35-2.63-3.43s1.01-3.39 2.67-3.39a2.11 2.11 0 011.62.76l.23-.25a2.419 2.419 0 00-1.85-.86c-1.84 0-3.06 1.45-3.06 3.74s1.21 3.78 3 3.78zm4.85-.13h.39v-6.93h2.34v-.33h-5.07v.33h2.34zm4.01 0h.37v-7.26h-.37zm4.89.13c1.72 0 2.95-1.49 2.95-3.78s-1.23-3.74-2.95-3.74-2.95 1.45-2.95 3.74 1.23 3.78 2.95 3.78zm0-.35c-1.53 0-2.56-1.35-2.56-3.43s1.03-3.39 2.56-3.39 2.56 1.31 2.56 3.39-1.03 3.43-2.56 3.43zm4.52.22h.35v-4.73c0-.69-.02-1.31-.04-1.99h.04l.83 1.43 3.19 5.29h.4v-7.26h-.36v4.67c0 .68.02 1.35.06 2.05h-.05l-.83-1.43-3.2-5.29h-.39zm10.91 0h.37v-7.26h-.37zm2.42 0h.35v-4.73c0-.69-.02-1.31-.04-1.99h.04l.83 1.43L82 44.58h.4v-7.26h-.36v4.67c0 .68.02 1.35.06 2.05h-.05l-.83-1.43-3.2-5.29h-.39zm6.81 0h1.64c2.24 0 3.25-1.49 3.25-3.65s-1.01-3.61-3.26-3.61h-1.63zm.37-.33v-6.6h1.21c2.06 0 2.92 1.36 2.92 3.28s-.86 3.32-2.92 3.32zm8.45.46c1.18 0 2.41-.6 2.41-2.85v-4.54h-.36v4.46c0 1.99-.98 2.58-2.05 2.58-1.05 0-2.01-.59-2.01-2.58v-4.46h-.37v4.54c0 2.25 1.2 2.85 2.38 2.85zm6.17 0a2.018 2.018 0 002.27-1.92c0-1.12-.72-1.55-1.54-1.92l-1.11-.5c-.51-.23-1.27-.56-1.27-1.47 0-.82.67-1.36 1.68-1.36a2.343 2.343 0 011.75.76l.23-.25a2.664 2.664 0 00-1.98-.86 1.846 1.846 0 00-2.06 1.75c0 1.07.85 1.5 1.48 1.78l1.11.5c.73.33 1.34.63 1.34 1.6 0 .91-.74 1.54-1.9 1.54a2.838 2.838 0 01-2.17-1.01l-.25.26a3.093 3.093 0 002.42 1.1zm5.04-.13h.39v-6.93h2.34v-.33h-5.07v.33h2.34zm4.38-3.74v-3.19h1.51c1.33 0 2.07.41 2.07 1.54s-.74 1.65-2.07 1.65zm4.09 3.74l-2.05-3.44a1.882 1.882 0 001.94-1.95c0-1.34-.91-1.87-2.34-1.87h-2.01v7.26h.37v-3.42h1.61l2.05 3.42zm2.5 0h.37V41.6l2.18-4.28h-.37l-1.16 2.33c-.24.54-.52 1.05-.81 1.58h-.04c-.29-.53-.53-1.04-.8-1.58l-1.15-2.33h-.4l2.18 4.28z"/><g data-name="グループ 132"><path data-name="パス 6" d="M0 31.08h6.216v-12.6h11.042v-5.208H6.216V5.166h12.936V0H0zm43.638.588c7.6 0 12.012-4.242 12.012-14.574V0h-5.964v17.64c0 6.468-2.352 8.652-6.048 8.652-3.654 0-5.88-2.184-5.88-8.652V0h-6.216v17.094c0 10.332 4.536 14.574 12.096 14.574zm30.828 0c6.678 0 9.618-4.788 9.618-10.626V0h-6.216v20.538c0 4.284-1.428 5.754-4.158 5.754-1.764 0-3.4-.966-4.62-3.234l-4.284 3.15a10.26 10.26 0 009.66 5.46z"/><path data-name="パス 7" d="M98.392 31.08h6.216V0h-6.216z"/></g></g></svg>