<svg xmlns="http://www.w3.org/2000/svg" width="118" height="46" viewBox="0 0 118 46">
  <g id="グループ_133" data-name="グループ 133" transform="translate(-749.981 87.08)">
    <path id="パス_5" data-name="パス 5" d="M-55.71.13A2.64,2.64,0,0,0-53.58-.9l-.23-.24a2.4,2.4,0,0,1-1.88.92c-1.62,0-2.63-1.35-2.63-3.43s1.01-3.39,2.67-3.39a2.11,2.11,0,0,1,1.62.76l.23-.25a2.419,2.419,0,0,0-1.85-.86c-1.84,0-3.06,1.45-3.06,3.74S-57.5.13-55.71.13Zm5.75,0c1.72,0,2.95-1.49,2.95-3.78s-1.23-3.74-2.95-3.74-2.95,1.45-2.95,3.74S-51.679.13-49.959.13Zm0-.35c-1.53,0-2.56-1.35-2.56-3.43s1.03-3.39,2.56-3.39,2.56,1.31,2.56,3.39S-48.429-.22-49.959-.22Zm4.52.22h.35V-4.73c0-.69-.02-1.31-.04-1.99h.04l.83,1.43L-41.069,0h.4V-7.26h-.36v4.67c0,.68.02,1.35.06,2.05h-.05l-.83-1.43-3.2-5.29h-.39Zm8.661.13a2.018,2.018,0,0,0,2.27-1.92c0-1.12-.72-1.55-1.54-1.92l-1.11-.5c-.51-.23-1.27-.56-1.27-1.47,0-.82.67-1.36,1.68-1.36A2.343,2.343,0,0,1-35-6.28l.23-.25a2.664,2.664,0,0,0-1.98-.86,1.846,1.846,0,0,0-2.06,1.75c0,1.07.85,1.5,1.48,1.78l1.11.5c.73.33,1.34.63,1.34,1.6,0,.91-.74,1.54-1.9,1.54a2.839,2.839,0,0,1-2.17-1.01l-.25.26A3.093,3.093,0,0,0-36.778.13Zm5.04-.13h.39V-6.93h2.34v-.33h-5.07v.33h2.34Zm4.38-3.74V-6.93h1.51c1.33,0,2.07.41,2.07,1.54s-.74,1.65-2.07,1.65ZM-23.267,0l-2.05-3.44a1.883,1.883,0,0,0,1.94-1.95c0-1.34-.91-1.87-2.34-1.87h-2.01V0h.37V-3.42h1.61L-23.7,0Zm3.64.13c1.18,0,2.41-.6,2.41-2.85V-7.26h-.36V-2.8c0,1.99-.98,2.58-2.05,2.58-1.05,0-2.01-.59-2.01-2.58V-7.26h-.37v4.54C-22.007-.47-20.807.13-19.627.13Zm6.951,0A2.64,2.64,0,0,0-10.546-.9l-.23-.24a2.4,2.4,0,0,1-1.88.92c-1.62,0-2.63-1.35-2.63-3.43s1.01-3.39,2.67-3.39A2.11,2.11,0,0,1-11-6.28l.23-.25a2.419,2.419,0,0,0-1.85-.86c-1.84,0-3.06,1.45-3.06,3.74S-14.466.13-12.676.13ZM-7.826,0h.39V-6.93H-5.1v-.33h-5.07v.33h2.34Zm4.01,0h.37V-7.26h-.37Zm4.89.13c1.72,0,2.95-1.49,2.95-3.78S2.8-7.39,1.075-7.39s-2.95,1.45-2.95,3.74S-.645.13,1.075.13Zm0-.35c-1.53,0-2.56-1.35-2.56-3.43s1.03-3.39,2.56-3.39,2.56,1.31,2.56,3.39S2.605-.22,1.075-.22ZM5.6,0h.35V-4.73c0-.69-.02-1.31-.04-1.99h.04l.83,1.43L9.966,0h.4V-7.26h-.36v4.67c0,.68.02,1.35.06,2.05h-.05l-.83-1.43-3.2-5.29H5.6ZM16.506,0h.37V-7.26h-.37Zm2.42,0h.35V-4.73c0-.69-.02-1.31-.04-1.99h.04l.83,1.43L23.3,0h.4V-7.26h-.36v4.67c0,.68.02,1.35.06,2.05h-.05l-.83-1.43-3.2-5.29h-.39Zm6.811,0h1.64c2.24,0,3.25-1.49,3.25-3.65s-1.01-3.61-3.26-3.61h-1.63Zm.37-.33v-6.6h1.21c2.06,0,2.92,1.36,2.92,3.28s-.86,3.32-2.92,3.32Zm8.451.46c1.18,0,2.41-.6,2.41-2.85V-7.26h-.36V-2.8c0,1.99-.98,2.58-2.05,2.58-1.05,0-2.01-.59-2.01-2.58V-7.26h-.37v4.54C32.178-.47,33.378.13,34.558.13Zm6.171,0A2.018,2.018,0,0,0,43-1.79c0-1.12-.72-1.55-1.54-1.92l-1.11-.5c-.51-.23-1.27-.56-1.27-1.47,0-.82.67-1.36,1.68-1.36a2.343,2.343,0,0,1,1.75.76l.23-.25a2.664,2.664,0,0,0-1.98-.86A1.846,1.846,0,0,0,38.7-5.64c0,1.07.85,1.5,1.48,1.78l1.11.5c.73.33,1.34.63,1.34,1.6,0,.91-.74,1.54-1.9,1.54a2.839,2.839,0,0,1-2.17-1.01l-.25.26A3.093,3.093,0,0,0,40.728.13ZM45.769,0h.39V-6.93H48.5v-.33h-5.07v.33h2.34Zm4.38-3.74V-6.93h1.51c1.33,0,2.07.41,2.07,1.54s-.74,1.65-2.07,1.65ZM54.24,0l-2.05-3.44a1.883,1.883,0,0,0,1.94-1.95c0-1.34-.91-1.87-2.34-1.87h-2.01V0h.37V-3.42h1.61L53.81,0Zm2.5,0h.37V-2.98l2.18-4.28h-.37L57.76-4.93c-.24.54-.52,1.05-.81,1.58h-.04c-.29-.53-.53-1.04-.8-1.58L54.96-7.26h-.4l2.18,4.28Z" transform="translate(808.691 -41.21)" fill="#111"/>
    <g id="グループ_132" data-name="グループ 132" transform="translate(749.981 -87.08)">
      <path id="パス_6" data-name="パス 6" d="M-41.958,0h6.216V-12.6H-24.7v-5.208H-35.742v-8.106h12.936V-31.08H-41.958ZM1.68.588c7.6,0,12.012-4.242,12.012-14.574V-31.08H7.728v17.64c0,6.468-2.352,8.652-6.048,8.652-3.654,0-5.88-2.184-5.88-8.652V-31.08h-6.216v17.094C-10.416-3.654-5.88.588,1.68.588Zm30.828,0c6.678,0,9.618-4.788,9.618-10.626V-31.08H35.91v20.538c0,4.284-1.428,5.754-4.158,5.754-1.764,0-3.4-.966-4.62-3.234l-4.284,3.15A10.26,10.26,0,0,0,32.508.588Z" transform="translate(41.958 31.08)" fill="#182f20"/>
      <path id="パス_7" data-name="パス 7" d="M-3.108,0H3.108V-31.08H-3.108Z" transform="translate(101.5 31.08)" fill="#88b999"/>
    </g>
  </g>
</svg>
