<svg xmlns="http://www.w3.org/2000/svg" width="140.063" height="42.841" viewBox="0 0 140.063 42.841"><g data-name="グループ 444"><path data-name="パス 20" d="M99.646 42.448c8.951 0 12.892-6.418 12.892-14.243V.005h-8.332V27.53c0 5.742-1.914 7.713-5.573 7.713-2.364 0-4.56-1.295-6.193-4.335l-5.742 4.222c2.815 4.841 6.868 7.318 12.948 7.318z" fill="#182f20"/><path data-name="パス 21" d="M0 41.66h8.332V24.771h14.806v-6.98H8.332V6.925h17.339V.001H0z" fill="#182f20"/><path data-name="パス 22" d="M58.242 42.841c10.19 0 16.1-5.686 16.1-19.535V.394h-7.994v23.644c0 8.67-3.153 11.6-8.107 11.6-4.9 0-7.881-2.927-7.881-11.6V.394h-8.332v22.912c0 13.849 6.08 19.535 16.214 19.535z" fill="#182f20"/><path data-name="パス 23" d="M131.731 41.659h8.332V0h-8.332z" fill="#88b999"/></g></svg>