<svg xmlns="http://www.w3.org/2000/svg" width="24.613" height="20" viewBox="0 0 24.613 20"><path d="M22.094 4.979c.015.217.015.434.015.653A14.271 14.271 0 017.741 20.003 14.3 14.3 0 010 17.733a10.272 10.272 0 001.2.073 10.14 10.14 0 006.272-2.166 5.056 5.056 0 01-4.716-3.507 5.033 5.033 0 002.28-.087 5.05 5.05 0 01-4.051-4.95v-.064a5.018 5.018 0 002.292.632A5.056 5.056 0 011.714.922a14.332 14.332 0 0010.407 5.275 5.055 5.055 0 018.605-4.606A10.133 10.133 0 0023.933.365a5.069 5.069 0 01-2.22 2.793 10.043 10.043 0 002.9-.795 10.259 10.259 0 01-2.519 2.616z" fill="#fff"/></svg>